<?xml version="1.0" encoding="utf-8"?>
<!-- Generator: Adobe Illustrator 26.0.2, SVG Export Plug-In . SVG Version: 6.00 Build 0)  -->
<svg version="1.1" id="Layer_1" xmlns="http://www.w3.org/2000/svg" xmlns:xlink="http://www.w3.org/1999/xlink" x="0px" y="0px"
	 viewBox="0 0 850.39 340.16" style="enable-background:new 0 0 850.39 340.16;" xml:space="preserve">
<style type="text/css">
	.st0{fill:#11334C;}
	.st1{fill-rule:evenodd;clip-rule:evenodd;fill:#FF9900;}
	.st2{fill-rule:evenodd;clip-rule:evenodd;fill:#FFFFFF;}
</style>
<g>
	<path class="st0" d="M124.44,100.58c72.54,0,99.38,7.89,99.38,7.89V83.99c0,0-39.01-8.95-98.05-8.95
		C66.73,75.04,13.9,90.38,13.9,122.1c0,29.34,33.01,41.28,56.85,46.08c23.79,4.79,48.15,4.1,72.26,5.56
		c13.95,0.85,41.45,4.41,41.45,23.43c0,26.75-37.37,30.58-58.68,30.58s-59.5,2.61-112.76-9.62v26.91c0,0,43.89,7.35,112.58,7.35
		c68.69,0,113.3-17.45,113.3-51.54c0-29.62-30.95-41.92-55.49-46.94c-24.6-5.03-49.34-3.86-74.21-5.45
		c-12.5-0.8-42.88-5.61-42.88-24.65C66.31,111.26,79.66,100.58,124.44,100.58z"/>
	<path class="st0" d="M332.26,229.2c-9.09,0-16.45-7.37-16.45-16.45v-73.84c0-2.21-1.79-4-4-4h-47.44v89.5
		c0,34.4,70.42,28.21,70.42,28.21V229.2H332.26z"/>
	<path class="st0" d="M425.95,229.2c-9.09,0-16.45-7.37-16.45-16.45v-73.84c0-2.21-1.79-4-4-4h-47.44v89.5
		c0,34.4,70.42,28.21,70.42,28.21V229.2H425.95z"/>
	<path class="st1" d="M291.94,73.71c18.2,0,32.97,8,32.97,17.87c0,9.87-14.77,17.87-32.97,17.87c-18.2,0-32.97-8-32.97-17.87
		C258.97,81.71,273.74,73.71,291.94,73.71"/>
	<path class="st1" d="M385.62,73.71c18.2,0,32.97,8,32.97,17.87c0,9.87-14.77,17.87-32.97,17.87c-18.2,0-32.97-8-32.97-17.87
		C352.66,81.71,367.42,73.71,385.62,73.71"/>
	<rect x="451.74" y="74.38" class="st0" width="385.65" height="178.67"/>
	<path class="st2" d="M514.8,92.92v120.9h104.91l75.35-122.23h43.44l87.64,144.27h-45.52l-20.61-36.41h-86.38l-18.61,35.87H472.41
		V92.92H514.8z M682.63,182.92h68.04l-34.67-61.25L682.63,182.92z"/>
</g>
</svg>
